Format : AVI
Format/Info : Audio Video Interleave
Format profile : OpenDML
File size : 2.00 GiB
Duration : 2h 25mn
Overall bit rate : 1 967 Kbps
Writing library : VirtualDub build 32842/release

Video
ID : 0
Format : MPEG-4 Visual
Format profile : Advanced Simple@L5
Format settings, BVOP : 2
Format settings, QPel : No
Format settings, GMC : No warppoints
Format settings, Matrix : Default (H.263)
Muxing mode : Packed bitstream
Codec ID : XVID
Codec ID/Hint : XviD
Duration : 2h 25mn
Bit rate : 1 827 Kbps
Width : 720 pixels
Height : 288 pixels
Display aspect ratio : 2.500
Frame rate : 23.976 fps
Color space : YUV
Chroma subsampling : 4:2:0
Bit depth : 8 bits
Scan type : Progressive
Compression mode : Lossy
Bits/(Pixel*Frame) : 0.367
Stream size : 1.86 GiB (93%)
Writing library : XviD 64

Audio
ID : 1
Format : MPEG Audio
Format version : Version 1
Format profile : Layer 3
Codec ID : 55
Codec ID/Hint : MP3
Duration : 2h 25mn
Bit rate mode : Constant
Bit rate : 128 Kbps
Channel(s) : 2 channels
Sampling rate : 44.1 KHz
Compression mode : Lossy
Delay relative to video : 9ms
Stream size : 134 MiB (7%)
Alignment : Split accross interleaves
Interleave, duration : 42 ms (1.00 video frame)
Interleave, preload duration : 500 ms





 
http://www.imdb.com/title/tt1399103/






Users: (5,322 votes) 211 reviews | Critics: 55 reviews Metascore: 48/100 (based on 26 reviews from Metacritic.com)


The Autobots learn of a Cybertronian spacecraft hidden on the Moon, and race against the Decepticons to reach it and to learn its secrets



















Source Used



VIDEO: ......IMAGiNE....... Thanks

AUDIO: ......IMAGiNE....... Thanks

Source was already good so just a few filters to add my way to doing it ..........Enjoy








Greetz to IMAGiNE,Flawl3ss,DiLLoN,BDK,NOiR,TOXiC,THC,Ez,Rx,Boobyblue,TaRiQ786,BHRG
